<?xml version="1.0" standalone="no"?><!-- Generator: Gravit.io --><svg xmlns="http://www.w3.org/2000/svg" xmlns:xlink="http://www.w3.org/1999/xlink" style="isolation:isolate" viewBox="0 0 250 250" width="250" height="250"><defs><clipPath id="_clipPath_CRniJ1ms0xTMIRqBsKxiAlVuWhI4HkHy"><rect width="250" height="250"/></clipPath></defs><g clip-path="url(#_clipPath_CRniJ1ms0xTMIRqBsKxiAlVuWhI4HkHy)"><rect width="250" height="250" style="fill:rgb(0,0,0)" fill-opacity="0"/><defs><filter id="E3Yv6D1dc9wQwGd3vXhZu57MDdr7zh0e" x="-200%" y="-200%" width="400%" height="400%" filterUnits="objectBoundingBox" color-interpolation-filters="sRGB"><feOffset xmlns="http://www.w3.org/2000/svg" in="SourceGraphic" dx="0" dy="3"/><feGaussianBlur xmlns="http://www.w3.org/2000/svg" stdDeviation="2.146804531419514" result="pf_100_offsetBlur"/><feComposite xmlns="http://www.w3.org/2000/svg" in="SourceGraphic" in2="pf_100_offsetBlur" result="pf_100_inverse" operator="out"/><feFlood xmlns="http://www.w3.org/2000/svg" flood-color="#FFFFFF" flood-opacity="0.5" result="pf_100_color"/><feComposite xmlns="http://www.w3.org/2000/svg" in="pf_100_color" in2="pf_100_inverse" operator="in" result="pf_100_shadow"/><feComposite xmlns="http://www.w3.org/2000/svg" in="pf_100_shadow" in2="SourceGraphic" operator="over" result="_out_9hjroP0XHBmihHTZwIJp16INVow1KuSk"/><feOffset xmlns="http://www.w3.org/2000/svg" in="_out_9hjroP0XHBmihHTZwIJp16INVow1KuSk" dx="0" dy="-3"/><feGaussianBlur xmlns="http://www.w3.org/2000/svg" stdDeviation="2.146804531419514" result="pf_101_offsetBlur"/><feComposite xmlns="http://www.w3.org/2000/svg" in="_out_9hjroP0XHBmihHTZwIJp16INVow1KuSk" in2="pf_101_offsetBlur" result="pf_101_inverse" operator="out"/><feFlood xmlns="http://www.w3.org/2000/svg" flood-color="#000000" flood-opacity="0.5" result="pf_101_color"/><feComposite xmlns="http://www.w3.org/2000/svg" in="pf_101_color" in2="pf_101_inverse" operator="in" result="pf_101_shadow"/><feComposite xmlns="http://www.w3.org/2000/svg" in="pf_101_shadow" in2="_out_9hjroP0XHBmihHTZwIJp16INVow1KuSk" operator="over" result="_out_k1EAdNcYcrxDpkGszQ2kmIY8AqvXi8Iu"/><feMerge><feMergeNode in="_out_k1EAdNcYcrxDpkGszQ2kmIY8AqvXi8Iu"/></feMerge></filter></defs><g filter="url(#E3Yv6D1dc9wQwGd3vXhZu57MDdr7zh0e)"><path d="M 15 0 L 235 0 C 243.279 0 250 6.721 250 15 L 250 235 C 250 243.279 243.279 250 235 250 L 15 250 C 6.721 250 0 243.279 0 235 L 0 15 C 0 6.721 6.721 0 15 0 Z" style="stroke:none;fill:#C83737;stroke-miterlimit:10;"/></g><g filter="url(#TuLu4dYHQUCEbuPIK8hoy3AYzpU69U1t)"><path d=" M 193.602 125 L 206.773 125 L 206.773 86.762 C 206.773 82.088 202.949 78.265 198.275 77.84 L 132.846 77.84 C 131.146 77.84 129.447 77.415 127.747 76.14 L 111.178 62.969 C 109.903 61.695 108.204 61.27 106.079 61.27 L 53.821 61.27 C 49.147 61.27 45.323 65.094 45.323 69.767 L 45.323 125 L 58.494 125 L 58.494 99.508 C 58.494 94.834 62.318 91.011 66.991 91.011 L 185.104 91.011 C 189.778 91.011 193.602 94.834 193.602 99.508 L 193.602 125 Z " fill="rgb(255,255,255)"/><path d=" M 206.773 113.529 L 206.773 180.233 C 206.773 184.906 202.949 188.73 198.275 188.73 L 53.821 188.73 C 49.147 188.73 45.323 184.906 45.323 180.233 L 45.323 113.529 C 45.323 108.005 49.997 103.757 55.52 103.757 L 196.151 103.757 C 202.099 103.757 206.773 108.43 206.773 113.529 Z  M 126.048 131.614 C 124.664 131.636 123.289 131.855 121.967 132.267 C 122.579 133.342 122.904 134.557 122.913 135.794 C 122.913 139.834 119.638 143.108 115.598 143.108 C 114.361 143.1 113.147 142.774 112.072 142.163 C 110.332 148.197 112.648 154.669 117.823 158.228 C 122.998 161.787 129.869 161.636 134.882 157.852 C 139.895 154.068 141.925 147.501 139.921 141.549 C 137.917 135.597 132.329 131.595 126.048 131.614 L 126.048 131.614 L 126.048 131.614 L 126.048 131.614 Z  M 126.048 165.053 C 113.162 165.053 101.349 157.869 94.97 146.243 C 101.349 134.618 113.161 127.434 126.048 127.434 C 138.935 127.434 150.747 134.618 157.126 146.243 C 150.748 157.869 138.935 165.053 126.048 165.053 L 126.048 165.053 L 126.048 165.053 Z  M 163.212 144.336 C 156.128 130.515 142.105 121.164 126.048 121.164 C 109.991 121.164 95.964 130.522 88.884 144.338 C 88.278 145.536 88.278 146.952 88.884 148.15 C 95.968 161.971 109.991 171.322 126.048 171.322 C 142.105 171.322 156.132 161.965 163.212 148.149 C 163.818 146.95 163.818 145.535 163.212 144.336 L 163.212 144.336 L 163.212 144.336 L 163.212 144.336 Z " fill-rule="evenodd" fill="rgb(255,255,255)"/></g><defs><filter id="TuLu4dYHQUCEbuPIK8hoy3AYzpU69U1t" x="-200%" y="-200%" width="400%" height="400%" filterUnits="objectBoundingBox" color-interpolation-filters="sRGB"><feGaussianBlur xmlns="http://www.w3.org/2000/svg" in="SourceGraphic" stdDeviation="2.146804531419514"/><feOffset xmlns="http://www.w3.org/2000/svg" dx="-5" dy="5" result="pf_100_offsetBlur"/><feFlood xmlns="http://www.w3.org/2000/svg" flood-color="#000000" flood-opacity="0.5"/><feComposite xmlns="http://www.w3.org/2000/svg" in2="pf_100_offsetBlur" operator="in" result="pf_100_dropShadow"/><feBlend xmlns="http://www.w3.org/2000/svg" in="SourceGraphic" in2="pf_100_dropShadow" mode="normal"/></filter></defs></g></svg>